# xmcd
#
# Track frame offsets: 
#        182
#        16082
#        31835
#        45775
#        66382
#        81847
#        100535
#        118695
#        133777
#        149682
#        164235
#        180470
#        203035
#        218065
#        230020
#        242435
#        253980
#        269205
#
# Disc length: 3746 seconds
#
# Revision: 4
# Processed by: cddbd v1.5.2PL0 Copyright (c) Steve Scherf et al.
# Submitted via: ExactAudioCopy v0.99pb5
#
DISCID=060ea012
DTITLE=Various Artist - Totally 70s [CD 2)
DYEAR=1995
DGENRE=Pop
TTITLE0=Jim Capaldi - Love Hurts
TTITLE1=Smokie - Living Next Door to Alice
TTITLE2=Olivia Newton-John - Hopelessly Devoted to You
TTITLE3=Pussycat - Mississippi
TTITLE4=Terry Jacks - Seasons in the Sun
TTITLE5=Don McLean - American Pie
TTITLE6=Lobo - I'd Love You to Want Me
TTITLE7=B. A. Robertson - Bang Bang
TTITLE8=Stretch - Why Did You Do It
TTITLE9=Squeeze - Cool for Cats
TTITLE10=Joe Jackson - Is She Really Going Out with Him
TTITLE11=10CC - Dreadlock Holiday
TTITLE12=Johnny Wakelin - In Zaire
TTITLE13=Mr Bloe - Groovin' with Mr Bloe
TTITLE14=Hello - New York Groove
TTITLE15=Hot Butter - Popcorn
TTITLE16=Buggles - Video Killed the Radio Star
TTITLE17=Jonathan Richman and the Modern Lovers - Egyptian Reggae
EXTD=YEAR: 1995 ID3G: 11
EXTT0=
EXTT1=
EXTT2=
EXTT3=
EXTT4=
EXTT5=
EXTT6=
EXTT7=
EXTT8=
EXTT9=
EXTT10=
EXTT11=
EXTT12=
EXTT13=
EXTT14=
EXTT15=
EXTT16=
EXTT17=
PLAYORDER=
